# xmcd CD database file
#
# Track frame offsets:
#	150
#	29276
#	48333
#	69772
#	92863
#	114133
#	135502
#	150315
#	172041
#
# Disc length: 2627 seconds
#
# Revision: 0
# Processed by: cddbd v1.5.2PL0 Copyright (c) Steve Scherf et al.
# Submitted via: CDex 1.51
#
DISCID=640a4109
DTITLE=Ray Lema Quintet - Head Bug
DYEAR=2016
DGENRE=Jazz
TTITLE0=Headbug
TTITLE1=Lauren
TTITLE2=Samba De Uma Nota So
TTITLE3=Naab
TTITLE4=No Hiding
TTITLE5=Mira
TTITLE6=Smart Times
TTITLE7=Mon Bel Amour
TTITLE8=Ulagaresh
EXTD=YEAR: 2016
EXTT0=
EXTT1=
EXTT2=
EXTT3=
EXTT4=
EXTT5=
EXTT6=
EXTT7=
EXTT8=
PLAYORDER=
